<svg width="32" height="32" viewBox="0 0 32 32" fill="none" xmlns="http://www.w3.org/2000/svg">
  <path transform="translate(3.4464, 3.7024) scale(0.998947)" d="M2.47621 9.10402C2.47621 3.8467 6.93594 -0.371695 12.2746 0.0259894C16.7687 0.361663 20.3758 4.00484 20.6656 8.50365C20.7852 10.3704 20.5014 12.9225 18.8655 15.2628L16.6732 13.7305C17.856 12.0384 18.0909 10.1502 17.9965 8.67565L17.9853 8.52756C17.7126 5.42822 15.1898 2.92589 12.0754 2.69328C8.29959 2.41222 5.15094 5.39085 5.15094 9.10402V9.71664L3.46256 13.3733L5.54575 14.5471L5.95866 17.61L9.99425 17.6339V24.4467H7.31953V20.293L3.61867 20.2713L3.07276 16.2236L0 14.4924L2.47621 9.12893V9.10402Z" fill="#2D2C2C"/>
  <path transform="translate(3.4464, 3.7024) scale(0.998947)" d="M24.9883 17.0674L17.3762 24.6819L12.4307 19.7337L14.3226 17.843L17.3762 20.8983L23.0968 15.1763L24.9883 17.0674Z" fill="#2D2C2C"/>
</svg>
