<svg width="32" height="32" viewBox="0 0 32 32" fill="none" xmlns="http://www.w3.org/2000/svg">
  <path transform="translate(3.9648, 17.3344) scale(1.002804)" d="M10.6991 10.6991H0V0H10.6991V10.6991ZM2.67425 8.02478H8.02479V2.67419H2.67425V8.02478Z" fill="#2D2C2C"/>
  <path transform="translate(17.2288, 3.9296) scale(0.993522)" d="M5.43278 10.8657C2.43767 10.8657 0 8.42801 0 5.43281C0 2.43769 2.43767 0 5.43278 0C8.42798 0 10.8656 2.43769 10.8656 5.43281C10.8656 8.42801 8.42798 10.8657 5.43278 10.8657ZM5.43278 2.67425C3.91058 2.67425 2.67419 3.91263 2.67419 5.43281C2.67419 6.95309 3.91259 8.1914 5.43278 8.1914C6.95305 8.1914 8.19136 6.95309 8.19136 5.43281C8.19136 3.91263 6.95305 2.67425 5.43278 2.67425Z" fill="#2D2C2C"/>
  <path transform="translate(17.3120, 17.3120) scale(1.002804)" d="M10.6991 10.6991H0V0H10.6991V10.6991ZM2.67429 8.02487H8.02487V2.67429H2.67429V8.02487Z" fill="#2D2C2C"/>
  <path transform="translate(3.9840, 4.0096) scale(1.002899)" d="M10.699 10.6991H0V0H10.699V10.6991ZM2.67425 8.02481H8.02481V2.67425H2.67425V8.02481Z" fill="#2D2C2C"/>
</svg>
