<svg width="32" height="32" viewBox="0 0 32 32" fill="none" xmlns="http://www.w3.org/2000/svg">
  <path transform="translate(2.6592, 2.6656) scale(1.333307)" d="Vector" fill="#2D2C2C"/>
  <path transform="translate(2.6592, 2.6656) scale(1.333307)" d="M10.0022 20.0044C4.48657 20.0044 0 15.5178 0 10.0022C0 4.48656 4.48811 0 10.0022 0C15.5163 0 20.0044 4.48656 20.0044 10.0022C20.0044 15.5178 15.5179 20.0044 10.0022 20.0044ZM10.0022 2.00568C5.59277 2.00568 2.00569 5.59275 2.00569 10.0022C2.00569 14.4117 5.59277 17.9987 10.0022 17.9987C14.4116 17.9987 17.9987 14.4117 17.9987 10.0022C17.9987 5.59275 14.4116 2.00568 10.0022 2.00568Z" fill="#2D2C2C"/>
  <path transform="translate(10.6880, 7.9904) scale(1.333178)" d="Vector" fill="#2D2C2C"/>
  <path transform="translate(10.6880, 7.9904) scale(1.333178)" d="M3.98201 7.96413C1.78656 7.96413 0 6.1775 0 3.98205C0 1.78659 1.78656 0 3.98201 0C6.17753 0 7.96409 1.78659 7.96409 3.98205C7.96409 6.1775 6.17753 7.96413 3.98201 7.96413ZM3.98201 2.00726C2.89282 2.00726 2.00565 2.89437 2.00565 3.98362C2.00565 5.07281 2.89282 5.95999 3.98201 5.95999C5.07127 5.95999 5.95845 5.07281 5.95845 3.98362C5.95845 2.89437 5.07127 2.00726 3.98201 2.00726Z" fill="#2D2C2C"/>
  <path transform="translate(6.5280, 20.6592) scale(1.333533)" d="Vector" fill="#2D2C2C"/>
  <path transform="translate(6.5280, 20.6592) scale(1.333533)" d="M1.72181 3.57477L0 2.54564C0.939586 0.975085 2.68142 0 4.54677 0H9.65355C11.3969 0 13.0231 0.839313 14.0043 2.24324L12.3597 3.39113C11.7533 2.52254 10.7412 2.00414 9.65355 2.00414H4.54677C3.38345 2.00414 2.30037 2.60585 1.72181 3.57319V3.57477Z" fill="#2D2C2C"/>
</svg>