<svg width="233" height="24" viewBox="0 0 233 24" fill="none" xmlns="http://www.w3.org/2000/svg">
<g id="World Developers">
<g id="Vector">
<path d="M12.0083 24C9.83769 24 7.83075 23.4627 5.99078 22.3849C4.1508 21.3103 2.69151 19.8521 1.61624 18.0133C0.537634 16.1713 0 14.1691 0 12C0 9.83092 0.537634 7.82536 1.61624 5.98665C2.69151 4.14794 4.1508 2.68966 5.99078 1.61513C7.83075 0.537264 9.83769 0 12.0083 0C14.1788 0 16.1858 0.537264 18.0258 1.61513C19.8657 2.69299 21.325 4.14794 22.4003 5.98665C23.4756 7.82536 24.0165 9.83092 24.0165 12C24.0165 14.1691 23.4789 16.1746 22.4003 18.0133C21.325 19.8521 19.8657 21.3103 18.0258 22.3849C16.1858 23.4594 14.1788 24 12.0083 24ZM1.01516 13.2747V10.7753H23.0247V13.2747H1.01516ZM12.0083 21.4472C13.7113 21.4472 15.2775 21.0267 16.7101 20.1858C18.1426 19.3448 19.2713 18.2002 20.0961 16.7486C20.921 15.3003 21.3317 13.7152 21.3317 11.9967C21.3317 10.2781 20.9176 8.69633 20.0961 7.24805C19.2713 5.79978 18.1426 4.65517 16.7101 3.8109C15.2775 2.96997 13.7113 2.5495 12.0083 2.5495C10.3052 2.5495 8.73905 2.96997 7.30648 3.8109C5.8739 4.65184 4.7452 5.79644 3.92038 7.24805C3.09557 8.69633 2.68149 10.2814 2.68149 11.9967C2.68149 13.7119 3.09223 15.297 3.92038 16.7486C4.7452 18.1969 5.8739 19.3415 7.30648 20.1858C8.73905 21.0267 10.3052 21.4472 12.0083 21.4472ZM5.60007 12.1802V11.8665C5.60007 10.6352 5.89393 9.52058 6.485 8.5228C7.07606 7.52503 7.90422 6.74082 8.97281 6.16685C10.0414 5.59288 11.2603 5.30923 12.6327 5.30923H20.6805L21.7224 7.75528H12.6828C11.3638 7.75528 10.2985 8.14238 9.49374 8.91324C8.68562 9.68409 8.28156 10.6685 8.28156 11.8665V12.1802C8.28156 13.3949 8.68562 14.3826 9.49374 15.1468C10.3019 15.911 11.3638 16.2914 12.6828 16.2914H21.7224L20.6805 18.7375H12.6327C11.2603 18.7375 10.0414 18.4505 8.97281 17.8799C7.90422 17.3059 7.07606 16.5217 6.485 15.5239C5.89393 14.5261 5.60007 13.4116 5.60007 12.1802Z" fill="var(--fill-0, #2D2C2C)"/>
<path d="M31.4691 16.865L28.0271 5.30887H31.3108L34.5406 17.2555H33.7795L36.4334 7.0775C36.5917 6.47016 36.8914 5.98962 37.3394 5.63256C37.7873 5.2755 38.3161 5.09863 38.929 5.09863C39.542 5.09863 40.0977 5.2755 40.5456 5.63256C40.9935 5.98962 41.2933 6.47016 41.4516 7.0775L44.1324 17.2555H43.3982L46.5775 5.30887H49.8343L46.4192 16.865C45.9982 18.2866 45.1327 19.0007 43.8192 19.0007C42.5057 19.0007 41.5863 18.29 41.2192 16.865L38.5922 6.68706H39.2759L36.622 16.865C36.4469 17.5258 36.1539 18.0464 35.743 18.4268C35.3321 18.8072 34.7764 19.0007 34.0759 19.0007C32.7455 19.0007 31.8766 18.29 31.4758 16.865H31.4691Z" fill="var(--fill-0, #2D2C2C)"/>
<path d="M53.8132 18.1567C52.7018 17.5226 51.8295 16.6683 51.1997 15.5938C50.5699 14.5193 50.2533 13.328 50.2533 12.0265C50.2533 10.7251 50.5699 9.53708 51.1997 8.45922C51.8295 7.38469 52.7018 6.53041 53.8132 5.89637C54.9246 5.26233 56.164 4.94531 57.5314 4.94531C58.8988 4.94531 60.1617 5.26233 61.2731 5.89637C62.3845 6.53041 63.2568 7.38469 63.8866 8.45922C64.5164 9.53708 64.833 10.7251 64.833 12.0265C64.833 13.328 64.5164 14.5159 63.8866 15.5938C63.2568 16.6683 62.3845 17.526 61.2731 18.1567C60.1617 18.7907 58.9122 19.1077 57.5314 19.1077C56.1505 19.1077 54.9246 18.7907 53.8132 18.1567ZM59.6969 15.774C60.32 15.3936 60.805 14.873 61.1552 14.2123C61.5055 13.5515 61.6806 12.8241 61.6806 12.0265C61.6806 11.229 61.5055 10.4781 61.1552 9.8274C60.805 9.17668 60.32 8.65944 59.6969 8.27902C59.0739 7.89859 58.3599 7.70505 57.555 7.70505C56.75 7.70505 56.036 7.89526 55.413 8.27902C54.7899 8.65944 54.3049 9.18002 53.9547 9.84075C53.6044 10.5015 53.4293 11.229 53.4293 12.0265C53.4293 12.8241 53.6044 13.5749 53.9547 14.2256C54.3049 14.8763 54.7899 15.3936 55.413 15.774C56.036 16.1544 56.7467 16.348 57.555 16.348C58.3633 16.348 59.0739 16.1578 59.6969 15.774Z" fill="var(--fill-0, #2D2C2C)"/>
<path d="M66.6201 5.30951H69.7185V9.1371L69.4828 8.82342C69.6916 7.62542 70.2271 6.71107 71.0859 6.07703C71.9447 5.443 72.9585 5.12598 74.1339 5.12598H74.2383V8.22275H74.1608C72.7429 8.23944 71.6517 8.59984 70.8906 9.30395C70.1294 10.0081 69.7489 11.156 69.7489 12.7511V18.7378H66.6234V5.30951H66.6201Z" fill="var(--fill-0, #2D2C2C)"/>
<path d="M77.3088 17.7668C76.5207 17.0627 76.1266 15.9681 76.1266 14.4731V0.157227H79.252V14.0827C79.252 14.7935 79.3969 15.3207 79.6865 15.6578C79.9761 15.9948 80.478 16.175 81.1987 16.1917V18.8213H80.8821C79.2891 18.8213 78.0968 18.4709 77.3088 17.7668Z" fill="var(--fill-0, #2D2C2C)"/>
<path d="M84.8649 18.1939C83.8242 17.5866 83.0159 16.7457 82.4468 15.6678C81.8776 14.5933 81.5913 13.3786 81.5913 12.0237C81.5913 10.6689 81.881 9.47758 82.4569 8.39304C83.0362 7.30851 83.8444 6.46423 84.8851 5.85689C85.9258 5.24955 87.1214 4.94588 88.472 4.94588C89.7518 4.94588 90.8564 5.2629 91.7961 5.89694C92.7323 6.53098 93.315 7.35189 93.544 8.35634L92.9412 8.25289V0.157227H96.0666V18.7412H92.9412V15.4108L93.5204 15.6978C93.379 16.3385 93.0725 16.9259 92.601 17.4564C92.1295 17.987 91.5334 18.3942 90.816 18.6811C90.0986 18.9681 89.3173 19.1116 88.4787 19.1116C87.1113 19.1116 85.909 18.808 84.8683 18.2006L84.8649 18.1939ZM91.0248 15.8246C91.6546 15.4442 92.1463 14.917 92.4966 14.2496C92.8469 13.5821 93.022 12.8413 93.022 12.0237C93.022 11.2062 92.8469 10.4653 92.4966 9.79794C92.1463 9.13053 91.6546 8.60662 91.0248 8.22286C90.395 7.84243 89.6676 7.64888 88.8458 7.64888C88.024 7.64888 87.3033 7.8391 86.6903 8.22286C86.0774 8.60328 85.6025 9.13053 85.2724 9.79794C84.939 10.4653 84.774 11.2095 84.774 12.0237C84.774 12.838 84.939 13.5821 85.2724 14.2496C85.6059 14.917 86.0774 15.4442 86.6903 15.8246C87.3033 16.2051 88.0206 16.3986 88.8458 16.3986C89.6709 16.3986 90.395 16.2084 91.0248 15.8246Z" fill="var(--fill-0, #2D2C2C)"/>
<path d="M119.066 1.61287C120.956 1.61287 122.557 1.94887 123.87 2.62087C125.183 3.29287 126.175 4.25287 126.848 5.50087C127.52 6.74887 127.856 8.22887 127.856 9.94087C127.856 11.6689 127.52 13.1969 126.848 14.5249C126.175 15.8529 125.191 16.8929 123.894 17.6449C122.597 18.3809 121.02 18.7489 119.162 18.7489H115.392V16.4209H119.21C120.379 16.4209 121.404 16.1809 122.285 15.7009C123.165 15.2049 123.854 14.4689 124.35 13.4929C124.846 12.5169 125.094 11.3329 125.094 9.94087C125.094 8.59687 124.846 7.47687 124.35 6.58087C123.854 5.68487 123.157 5.02087 122.261 4.58887C121.38 4.15687 120.347 3.94087 119.162 3.94087H115.512V1.61287H119.066ZM116.617 18.7489H113.855V1.61287H116.617V18.7489Z" fill="var(--fill-0, #2D2C2C)"/>
<path d="M141.029 15.0529C140.789 15.8849 140.404 16.6049 139.876 17.2129C139.348 17.8209 138.691 18.2849 137.907 18.6049C137.138 18.9249 136.274 19.0849 135.313 19.0849C134.096 19.0849 133.015 18.8129 132.071 18.2689C131.142 17.7089 130.414 16.9329 129.885 15.9409C129.373 14.9329 129.117 13.7889 129.117 12.5089C129.117 11.2609 129.381 10.1489 129.909 9.17287C130.454 8.18087 131.19 7.40487 132.119 6.84487C133.063 6.28487 134.128 6.00487 135.313 6.00487C136.658 6.00487 137.771 6.31687 138.651 6.94087C139.532 7.56487 140.172 8.38087 140.573 9.38887C140.989 10.3969 141.205 11.5169 141.221 12.7489C141.221 12.9249 141.213 13.1009 141.197 13.2769H131.35V11.3569H138.627C138.531 10.3649 138.203 9.57287 137.643 8.98087C137.082 8.38887 136.298 8.09287 135.289 8.09287C134.52 8.09287 133.848 8.27687 133.272 8.64487C132.711 9.01287 132.287 9.52487 131.999 10.1809C131.71 10.8369 131.582 11.5889 131.614 12.4369C131.598 13.3489 131.734 14.1489 132.023 14.8369C132.327 15.5089 132.759 16.0289 133.32 16.3969C133.88 16.7649 134.536 16.9489 135.289 16.9489C136.057 16.9489 136.714 16.7889 137.258 16.4689C137.819 16.1489 138.203 15.6769 138.411 15.0529H141.029Z" fill="var(--fill-0, #2D2C2C)"/>
<path d="M144.502 6.34087C144.95 7.66887 145.391 8.98087 145.823 10.2769C146.511 12.3729 147.144 14.3169 147.72 16.1089H147.744C148.177 14.7809 148.529 13.7009 148.801 12.8689C149.073 12.0209 149.433 10.9089 149.882 9.53287C150.058 8.98887 150.234 8.45287 150.41 7.92487C150.586 7.39687 150.754 6.86887 150.915 6.34087H153.724C152.203 10.4689 150.682 14.6049 149.161 18.7489H146.255L141.692 6.34087H144.502Z" fill="var(--fill-0, #2D2C2C)"/>
<path d="M166.019 15.0529C165.779 15.8849 165.395 16.6049 164.866 17.2129C164.338 17.8209 163.682 18.2849 162.897 18.6049C162.129 18.9249 161.264 19.0849 160.303 19.0849C159.086 19.0849 158.006 18.8129 157.061 18.2689C156.132 17.7089 155.404 16.9329 154.876 15.9409C154.363 14.9329 154.107 13.7889 154.107 12.5089C154.107 11.2609 154.371 10.1489 154.9 9.17287C155.444 8.18087 156.18 7.40487 157.109 6.84487C158.054 6.28487 159.118 6.00487 160.303 6.00487C161.648 6.00487 162.761 6.31687 163.642 6.94087C164.522 7.56487 165.163 8.38087 165.563 9.38887C165.979 10.3969 166.195 11.5169 166.211 12.7489C166.211 12.9249 166.203 13.1009 166.187 13.2769H156.341V11.3569H163.618C163.521 10.3649 163.193 9.57287 162.633 8.98087C162.072 8.38887 161.288 8.09287 160.279 8.09287C159.511 8.09287 158.838 8.27687 158.262 8.64487C157.701 9.01287 157.277 9.52487 156.989 10.1809C156.701 10.8369 156.573 11.5889 156.605 12.4369C156.589 13.3489 156.725 14.1489 157.013 14.8369C157.317 15.5089 157.75 16.0289 158.31 16.3969C158.87 16.7649 159.527 16.9489 160.279 16.9489C161.048 16.9489 161.704 16.7889 162.249 16.4689C162.809 16.1489 163.193 15.6769 163.401 15.0529H166.019Z" fill="var(--fill-0, #2D2C2C)"/>
<path d="M170.95 1.61287V18.7489H168.308V1.61287H170.95Z" fill="var(--fill-0, #2D2C2C)"/>
<path d="M179.221 19.0849C177.988 19.0849 176.899 18.8049 175.955 18.2449C175.01 17.6849 174.273 16.9169 173.745 15.9409C173.217 14.9489 172.952 13.8209 172.952 12.5569C172.952 11.2929 173.217 10.1649 173.745 9.17287C174.273 8.18087 175.01 7.41287 175.955 6.86887C176.899 6.30887 177.988 6.02887 179.221 6.02887C180.438 6.02887 181.518 6.30887 182.463 6.86887C183.408 7.41287 184.136 8.18087 184.649 9.17287C185.177 10.1649 185.441 11.2929 185.441 12.5569C185.441 13.8209 185.177 14.9489 184.649 15.9409C184.136 16.9169 183.408 17.6849 182.463 18.2449C181.518 18.8049 180.438 19.0849 179.221 19.0849ZM179.221 16.9249C179.941 16.9249 180.582 16.7329 181.142 16.3489C181.702 15.9649 182.127 15.4369 182.415 14.7649C182.719 14.0929 182.871 13.3569 182.871 12.5569C182.871 11.7409 182.719 11.0049 182.415 10.3489C182.127 9.67687 181.702 9.14887 181.142 8.76487C180.582 8.36487 179.941 8.16487 179.221 8.16487C178.484 8.16487 177.836 8.36487 177.275 8.76487C176.715 9.14887 176.283 9.67687 175.979 10.3489C175.69 11.0049 175.546 11.7409 175.546 12.5569C175.546 13.3569 175.69 14.0929 175.979 14.7649C176.283 15.4369 176.715 15.9649 177.275 16.3489C177.836 16.7329 178.484 16.9249 179.221 16.9249Z" fill="var(--fill-0, #2D2C2C)"/>
<path d="M194.135 6.02887C195.272 6.02887 196.281 6.30887 197.161 6.86887C198.042 7.41287 198.722 8.18087 199.203 9.17287C199.699 10.1489 199.947 11.2609 199.947 12.5089C199.947 13.7889 199.699 14.9249 199.203 15.9169C198.722 16.8929 198.042 17.6609 197.161 18.2209C196.281 18.7809 195.272 19.0609 194.135 19.0609C193.415 19.0609 192.798 18.9729 192.286 18.7969C191.774 18.6209 191.357 18.4049 191.037 18.1489C190.733 17.8769 190.445 17.5489 190.173 17.1649H190.148V23.5489H187.459V6.34087H190.124V9.53287L189.98 10.2289V12.5089C189.98 13.2289 190.1 13.9249 190.341 14.5969C190.581 15.2689 190.973 15.8289 191.517 16.2769C192.078 16.7089 192.79 16.9249 193.655 16.9249C194.455 16.9249 195.128 16.7249 195.672 16.3249C196.233 15.9249 196.649 15.3889 196.921 14.7169C197.193 14.0449 197.329 13.3089 197.329 12.5089C197.329 11.7249 197.185 11.0049 196.897 10.3489C196.625 9.69287 196.209 9.16487 195.648 8.76487C195.104 8.36487 194.439 8.16487 193.655 8.16487C192.886 8.16487 192.222 8.38887 191.662 8.83687C191.117 9.26887 190.701 9.82087 190.413 10.4929C190.124 11.1649 189.98 11.8369 189.98 12.5089L189.284 7.85287H190.1C190.373 7.53287 190.669 7.24487 190.989 6.98887C191.309 6.73287 191.734 6.50887 192.262 6.31687C192.79 6.12487 193.415 6.02887 194.135 6.02887Z" fill="var(--fill-0, #2D2C2C)"/>
<path d="M213.115 15.0529C212.875 15.8849 212.491 16.6049 211.962 17.2129C211.434 17.8209 210.777 18.2849 209.993 18.6049C209.224 18.9249 208.36 19.0849 207.399 19.0849C206.182 19.0849 205.102 18.8129 204.157 18.2689C203.228 17.7089 202.5 16.9329 201.971 15.9409C201.459 14.9329 201.203 13.7889 201.203 12.5089C201.203 11.2609 201.467 10.1489 201.995 9.17287C202.54 8.18087 203.276 7.40487 204.205 6.84487C205.15 6.28487 206.214 6.00487 207.399 6.00487C208.744 6.00487 209.857 6.31687 210.737 6.94087C211.618 7.56487 212.258 8.38087 212.659 9.38887C213.075 10.3969 213.291 11.5169 213.307 12.7489C213.307 12.9249 213.299 13.1009 213.283 13.2769H203.436V11.3569H210.713C210.617 10.3649 210.289 9.57287 209.729 8.98087C209.168 8.38887 208.384 8.09287 207.375 8.09287C206.607 8.09287 205.934 8.27687 205.358 8.64487C204.797 9.01287 204.373 9.52487 204.085 10.1809C203.797 10.8369 203.669 11.5889 203.701 12.4369C203.685 13.3489 203.821 14.1489 204.109 14.8369C204.413 15.5089 204.845 16.0289 205.406 16.3969C205.966 16.7649 206.623 16.9489 207.375 16.9489C208.144 16.9489 208.8 16.7889 209.344 16.4689C209.905 16.1489 210.289 15.6769 210.497 15.0529H213.115Z" fill="var(--fill-0, #2D2C2C)"/>
<path d="M217.998 9.94087L218.046 10.3009V18.7489H215.404V6.34087H217.998V9.94087ZM221.72 8.74087C221.56 8.74087 221.376 8.74887 221.168 8.76487C220.976 8.78087 220.792 8.80487 220.616 8.83687C220.135 8.93287 219.703 9.12487 219.319 9.41287C218.951 9.68487 218.646 10.1169 218.406 10.7089C218.166 11.2849 218.046 12.0609 218.046 13.0369L217.542 8.98087H217.926L217.542 9.10087C217.814 8.23687 218.318 7.54887 219.055 7.03687C219.791 6.50887 220.68 6.24487 221.72 6.24487V8.74087Z" fill="var(--fill-0, #2D2C2C)"/>
<path d="M230.238 10.0609C230.158 9.38887 229.886 8.89287 229.422 8.57287C228.957 8.23687 228.405 8.06887 227.764 8.06887C227.38 8.06887 227.028 8.13287 226.708 8.26087C226.387 8.38887 226.131 8.57287 225.939 8.81287C225.747 9.05287 225.651 9.31687 225.651 9.60487C225.651 10.0209 225.827 10.3729 226.179 10.6609C226.532 10.9329 227.036 11.1489 227.692 11.3089L229.349 11.7409C230.47 12.0129 231.359 12.4289 232.015 12.9889C232.672 13.5329 233 14.2689 233 15.1969C233 15.9969 232.76 16.6929 232.279 17.2849C231.799 17.8609 231.175 18.3089 230.406 18.6289C229.638 18.9329 228.813 19.0849 227.932 19.0849C227.084 19.0849 226.283 18.9489 225.531 18.6769C224.778 18.3889 224.146 17.9409 223.634 17.3329C223.121 16.7089 222.825 15.9169 222.745 14.9569H225.339C225.467 15.6609 225.747 16.1809 226.179 16.5169C226.612 16.8529 227.212 17.0209 227.981 17.0209C228.653 17.0209 229.221 16.8849 229.686 16.6129C230.166 16.3249 230.406 15.9009 230.406 15.3409C230.406 15.0209 230.31 14.7569 230.118 14.5489C229.942 14.3409 229.71 14.1809 229.422 14.0689C229.133 13.9409 228.773 13.8209 228.341 13.7089C228.021 13.6129 227.732 13.5409 227.476 13.4929L226.588 13.2529C225.547 12.9809 224.706 12.5489 224.066 11.9569C223.425 11.3649 223.105 10.6129 223.105 9.70087C223.105 8.96487 223.321 8.31687 223.754 7.75687C224.186 7.19687 224.762 6.76487 225.483 6.46087C226.203 6.15687 226.98 6.00487 227.812 6.00487C228.693 6.00487 229.486 6.15687 230.19 6.46087C230.911 6.76487 231.495 7.22087 231.943 7.82887C232.392 8.43687 232.664 9.18087 232.76 10.0609H230.238Z" fill="var(--fill-0, #2D2C2C)"/>
</g>
</g>
</svg>
